<?xml version="1.0" encoding="utf-8"?>
<!-- Generator: Adobe Illustrator 16.0.3, SVG Export Plug-In . SVG Version: 6.00 Build 0)  -->
<!DOCTYPE svg PUBLIC "-//W3C//DTD SVG 1.1//EN" "http://www.w3.org/Graphics/SVG/1.1/DTD/svg11.dtd">
<svg version="1.1" id="Capa_1" xmlns="http://www.w3.org/2000/svg" xmlns:xlink="http://www.w3.org/1999/xlink" x="0px" y="0px"
	 width="792px" height="612px" viewBox="0 0 792 612" enable-background="new 0 0 792 612" xml:space="preserve">
<g>
	<defs>
		<rect id="SVGID_1_" width="792" height="612"/>
	</defs>
	<clipPath id="SVGID_2_">
		<use xlink:href="#SVGID_1_"  overflow="visible"/>
	</clipPath>
	<path clip-path="url(#SVGID_2_)" fill="#FD090E" d="M67.835,432.807c0,0.655-0.037,1.201-0.11,1.642
		c-0.068,0.44-0.173,0.792-0.315,1.064c-0.141,0.268-0.314,0.467-0.53,0.593c-0.209,0.121-0.44,0.184-0.697,0.184H38.725
		c-0.929,0-1.71-0.221-2.345-0.661c-0.634-0.435-0.949-1.153-0.949-2.145v-38.121c0-0.991,0.315-1.71,0.949-2.15
		c0.635-0.435,1.416-0.655,2.345-0.655h27.291c0.257,0,0.477,0.053,0.677,0.168c0.199,0.11,0.367,0.31,0.508,0.593
		c0.142,0.277,0.247,0.64,0.315,1.08c0.073,0.44,0.105,0.996,0.105,1.673c0,0.629-0.032,1.164-0.105,1.604
		c-0.068,0.44-0.173,0.798-0.315,1.064c-0.141,0.273-0.309,0.467-0.508,0.593c-0.2,0.126-0.42,0.184-0.677,0.184H46.497v10.683
		h16.52c0.257,0,0.487,0.063,0.697,0.184c0.21,0.126,0.388,0.314,0.53,0.577c0.141,0.257,0.246,0.608,0.314,1.049
		c0.074,0.436,0.105,0.97,0.105,1.604c0,0.65-0.031,1.19-0.105,1.621c-0.068,0.429-0.173,0.771-0.314,1.033
		c-0.142,0.257-0.32,0.44-0.53,0.556c-0.21,0.11-0.44,0.168-0.697,0.168h-16.52v12.334h19.687c0.257,0,0.488,0.063,0.697,0.189
		c0.216,0.126,0.389,0.319,0.53,0.592c0.142,0.268,0.247,0.625,0.315,1.065C67.798,431.605,67.835,432.156,67.835,432.807"/>
	<path clip-path="url(#SVGID_2_)" fill="#FD090E" d="M106.366,434.532c0.225,0.383,0.33,0.697,0.32,0.944
		c-0.016,0.251-0.22,0.45-0.614,0.608c-0.393,0.157-1.001,0.267-1.82,0.324c-0.813,0.053-1.898,0.084-3.251,0.084
		c-1.269,0-2.287-0.021-3.063-0.052c-0.776-0.032-1.379-0.1-1.814-0.205c-0.441-0.101-0.761-0.226-0.976-0.372
		c-0.21-0.142-0.372-0.33-0.482-0.556l-6.97-10.715l-6.975,10.715c-0.11,0.226-0.268,0.414-0.461,0.556
		c-0.2,0.146-0.504,0.271-0.908,0.372c-0.409,0.105-0.981,0.173-1.715,0.205c-0.729,0.031-1.688,0.052-2.868,0.052
		c-1.243,0-2.229-0.031-2.958-0.084c-0.734-0.058-1.269-0.167-1.605-0.324c-0.34-0.158-0.519-0.357-0.529-0.608
		c-0.016-0.247,0.105-0.562,0.356-0.944l10.437-14.836l-9.635-13.924c-0.251-0.409-0.387-0.75-0.398-1.033
		c-0.016-0.283,0.162-0.504,0.53-0.661c0.361-0.157,0.949-0.268,1.751-0.335c0.803-0.068,1.894-0.1,3.273-0.1
		c1.237,0,2.234,0.016,2.979,0.047c0.744,0.036,1.332,0.084,1.751,0.152c0.425,0.067,0.734,0.178,0.934,0.319
		c0.193,0.147,0.361,0.336,0.503,0.562l6.718,10.069l6.676-10.069c0.084-0.184,0.21-0.341,0.377-0.473
		c0.174-0.136,0.441-0.251,0.808-0.341c0.362-0.089,0.865-0.157,1.495-0.204c0.634-0.042,1.5-0.063,2.601-0.063
		c1.238,0,2.229,0.021,2.979,0.063c0.744,0.047,1.28,0.146,1.605,0.304c0.324,0.163,0.477,0.377,0.466,0.661
		c-0.016,0.283-0.178,0.65-0.487,1.102l-9.377,13.688L106.366,434.532z"/>
	<path clip-path="url(#SVGID_2_)" fill="#FD090E" d="M147.942,419.628c0,2.68-0.357,5.098-1.075,7.247
		c-0.719,2.156-1.767,3.986-3.152,5.491c-1.379,1.511-3.094,2.675-5.15,3.482c-2.056,0.813-4.41,1.217-7.059,1.217
		c-1.096,0-2.103-0.084-3.021-0.252c-0.912-0.168-1.799-0.431-2.658-0.776c-0.86-0.352-1.71-0.786-2.555-1.301
		c-0.849-0.519-1.719-1.127-2.622-1.824v14.19c0,0.226-0.084,0.431-0.251,0.608c-0.168,0.184-0.462,0.336-0.865,0.456
		c-0.41,0.126-0.955,0.221-1.632,0.289c-0.671,0.068-1.531,0.1-2.574,0.1c-1.044,0-1.899-0.031-2.576-0.1
		c-0.676-0.068-1.221-0.163-1.631-0.289c-0.403-0.12-0.692-0.272-0.865-0.456c-0.168-0.178-0.252-0.383-0.252-0.608v-42.111
		c0-0.226,0.069-0.42,0.21-0.588c0.142-0.173,0.388-0.31,0.74-0.425c0.351-0.11,0.818-0.199,1.395-0.252
		c0.577-0.058,1.3-0.083,2.176-0.083c0.845,0,1.557,0.025,2.135,0.083c0.576,0.053,1.038,0.142,1.395,0.252
		c0.351,0.115,0.597,0.252,0.739,0.425c0.136,0.168,0.21,0.362,0.21,0.588v3.55c1.096-0.901,2.176-1.693,3.23-2.381
		c1.059-0.687,2.135-1.264,3.231-1.726c1.101-0.461,2.234-0.808,3.403-1.032c1.17-0.221,2.413-0.336,3.739-0.336
		c2.759,0,5.114,0.436,7.054,1.301c1.946,0.87,3.529,2.056,4.752,3.565c1.227,1.511,2.118,3.268,2.685,5.271
		C147.66,415.212,147.942,417.352,147.942,419.628 M136.872,420.236c0-1.285-0.115-2.518-0.356-3.703
		c-0.242-1.18-0.651-2.234-1.227-3.156c-0.578-0.929-1.338-1.663-2.282-2.219c-0.944-0.551-2.118-0.823-3.524-0.823
		c-0.708,0-1.405,0.084-2.092,0.252c-0.693,0.168-1.395,0.445-2.114,0.828c-0.718,0.383-1.458,0.876-2.218,1.484
		c-0.761,0.607-1.563,1.363-2.408,2.266v9.938c1.495,1.511,2.916,2.675,4.269,3.498c1.348,0.823,2.759,1.232,4.222,1.232
		c1.379,0,2.559-0.284,3.529-0.844c0.971-0.562,1.768-1.301,2.387-2.214c0.618-0.912,1.075-1.945,1.374-3.094
		C136.726,422.533,136.872,421.385,136.872,420.236"/>
	<path clip-path="url(#SVGID_2_)" fill="#FD090E" d="M187.873,419.188c0,1.038-0.288,1.804-0.865,2.297
		c-0.577,0.498-1.374,0.744-2.386,0.744h-22.944c0,1.285,0.194,2.449,0.572,3.498c0.382,1.049,0.985,1.94,1.819,2.67
		c0.829,0.734,1.899,1.29,3.21,1.673s2.879,0.577,4.709,0.577c1.857,0,3.493-0.11,4.898-0.32c1.411-0.215,2.628-0.451,3.656-0.713
		c1.027-0.257,1.882-0.493,2.559-0.708c0.676-0.214,1.222-0.32,1.647-0.32c0.252,0,0.461,0.037,0.634,0.115
		c0.168,0.079,0.309,0.221,0.42,0.425c0.115,0.199,0.189,0.488,0.236,0.86c0.042,0.372,0.063,0.839,0.063,1.405
		c0,0.493-0.016,0.918-0.042,1.264c-0.032,0.352-0.074,0.65-0.131,0.897c-0.053,0.246-0.142,0.456-0.252,0.624
		c-0.11,0.168-0.262,0.335-0.446,0.493c-0.184,0.157-0.682,0.372-1.5,0.64c-0.813,0.272-1.856,0.534-3.125,0.797
		c-1.264,0.257-2.717,0.482-4.348,0.671c-1.636,0.194-3.382,0.29-5.239,0.29c-3.351,0-6.288-0.337-8.81-1.014
		c-2.523-0.676-4.626-1.699-6.314-3.078c-1.689-1.374-2.953-3.104-3.782-5.202c-0.834-2.098-1.248-4.553-1.248-7.368
		c0-2.681,0.435-5.098,1.311-7.248c0.871-2.155,2.14-3.98,3.802-5.475c1.663-1.5,3.682-2.644,6.063-3.431
		c2.38-0.791,5.061-1.185,8.044-1.185c3.158,0,5.853,0.372,8.092,1.117c2.24,0.739,4.08,1.772,5.512,3.089
		c1.437,1.321,2.497,2.879,3.173,4.683c0.677,1.805,1.012,3.761,1.012,5.879V419.188z M177.563,416.754
		c0.084-2.386-0.514-4.264-1.793-5.627c-1.28-1.363-3.263-2.046-5.937-2.046c-1.353,0-2.528,0.205-3.53,0.608
		c-0.996,0.404-1.83,0.955-2.49,1.642c-0.662,0.688-1.17,1.495-1.521,2.434c-0.352,0.934-0.557,1.93-0.614,2.989H177.563z"/>
	<path clip-path="url(#SVGID_2_)" fill="#FD090E" d="M217.451,407.797c0,0.813-0.026,1.479-0.084,1.992
		c-0.058,0.52-0.142,0.929-0.251,1.217c-0.116,0.294-0.263,0.498-0.446,0.608c-0.184,0.115-0.415,0.173-0.698,0.173
		c-0.225,0-0.477-0.042-0.76-0.12c-0.283-0.079-0.598-0.163-0.949-0.252c-0.352-0.089-0.74-0.173-1.165-0.257
		c-0.419-0.079-0.886-0.115-1.395-0.115c-0.587,0-1.18,0.095-1.773,0.288c-0.592,0.189-1.206,0.488-1.835,0.892
		c-0.634,0.409-1.295,0.949-1.987,1.626c-0.693,0.678-1.432,1.511-2.219,2.501v18.791c0,0.226-0.084,0.419-0.251,0.594
		c-0.168,0.167-0.462,0.309-0.866,0.418c-0.409,0.115-0.954,0.199-1.631,0.257c-0.671,0.053-1.531,0.084-2.575,0.084
		c-1.043,0-1.898-0.031-2.574-0.084c-0.677-0.058-1.223-0.142-1.632-0.257c-0.404-0.109-0.692-0.251-0.865-0.418
		c-0.168-0.175-0.252-0.368-0.252-0.594v-30.149c0-0.226,0.068-0.42,0.21-0.588c0.142-0.173,0.394-0.31,0.761-0.425
		c0.366-0.11,0.839-0.199,1.415-0.252c0.577-0.058,1.306-0.083,2.177-0.083c0.902,0,1.646,0.025,2.239,0.083
		c0.593,0.053,1.049,0.142,1.374,0.252c0.32,0.115,0.556,0.252,0.698,0.425c0.141,0.168,0.209,0.362,0.209,0.588v3.755
		c0.986-1.128,1.915-2.055,2.791-2.79c0.87-0.734,1.704-1.312,2.49-1.741c0.787-0.425,1.579-0.724,2.365-0.896
		c0.787-0.167,1.579-0.251,2.366-0.251c0.367,0,0.76,0.015,1.185,0.052c0.42,0.032,0.86,0.089,1.311,0.167
		c0.446,0.079,0.845,0.168,1.18,0.268c0.341,0.105,0.582,0.21,0.74,0.325c0.152,0.11,0.267,0.236,0.335,0.372
		c0.073,0.132,0.136,0.32,0.194,0.557c0.053,0.235,0.095,0.594,0.126,1.064C217.435,406.344,217.451,406.989,217.451,407.797"/>
	<path clip-path="url(#SVGID_2_)" fill="#FD090E" d="M242.928,432.167c0,0.991-0.073,1.752-0.231,2.281
		c-0.152,0.529-0.356,0.902-0.613,1.111c-0.252,0.216-0.624,0.409-1.117,0.577c-0.494,0.168-1.07,0.314-1.731,0.44
		c-0.666,0.121-1.385,0.221-2.156,0.289c-0.776,0.063-1.557,0.1-2.344,0.1c-2.113,0-3.943-0.215-5.496-0.646
		c-1.547-0.424-2.827-1.085-3.844-1.977c-1.012-0.887-1.757-2.009-2.239-3.362c-0.478-1.353-0.719-2.952-0.719-4.798v-15.445h-4.52
		c-0.535,0-0.944-0.267-1.222-0.797c-0.283-0.524-0.425-1.41-0.425-2.648c0-0.655,0.037-1.206,0.105-1.657
		c0.073-0.451,0.178-0.808,0.32-1.064c0.142-0.262,0.315-0.445,0.529-0.562c0.21-0.109,0.457-0.167,0.74-0.167h4.473v-6.724
		c0-0.226,0.079-0.43,0.237-0.608c0.151-0.184,0.435-0.336,0.844-0.456c0.409-0.126,0.954-0.215,1.646-0.272
		c0.693-0.058,1.542-0.084,2.555-0.084c1.043,0,1.908,0.026,2.601,0.084c0.687,0.058,1.232,0.146,1.626,0.272
		c0.393,0.12,0.676,0.272,0.844,0.456c0.167,0.179,0.251,0.383,0.251,0.608v6.724h8.197c0.283,0,0.53,0.058,0.74,0.167
		c0.209,0.116,0.388,0.3,0.53,0.562c0.141,0.257,0.246,0.613,0.314,1.064c0.073,0.451,0.105,1.002,0.105,1.657
		c0,1.238-0.136,2.124-0.419,2.648c-0.284,0.53-0.693,0.797-1.228,0.797h-8.239v14.16c0,1.646,0.325,2.879,0.976,3.702
		c0.645,0.823,1.799,1.232,3.461,1.232c0.567,0,1.07-0.036,1.521-0.115c0.451-0.078,0.855-0.173,1.206-0.272
		s0.645-0.188,0.887-0.272c0.241-0.079,0.456-0.116,0.655-0.116c0.168,0,0.33,0.037,0.488,0.116
		c0.152,0.084,0.273,0.241,0.356,0.477c0.084,0.236,0.163,0.557,0.231,0.96C242.896,431.019,242.928,431.538,242.928,432.167"/>
	<path clip-path="url(#SVGID_2_)" fill="#FD090E" d="M285.349,419.764c0,2.564-0.419,4.909-1.264,7.028
		c-0.844,2.118-2.129,3.943-3.844,5.475c-1.72,1.531-3.876,2.717-6.466,3.551c-2.591,0.833-5.617,1.248-9.084,1.248
		c-3.351,0-6.266-0.373-8.742-1.112c-2.48-0.744-4.536-1.825-6.172-3.246c-1.631-1.421-2.843-3.167-3.63-5.239
		c-0.791-2.071-1.185-4.437-1.185-7.096c0-2.569,0.43-4.919,1.29-7.048c0.855-2.129,2.145-3.953,3.865-5.476
		c1.715-1.521,3.866-2.7,6.44-3.534c2.581-0.829,5.602-1.248,9.062-1.248c3.383,0,6.31,0.367,8.79,1.095
		c2.476,0.735,4.526,1.811,6.146,3.231c1.621,1.422,2.822,3.168,3.614,5.239C284.955,414.703,285.349,417.078,285.349,419.764
		 M274.409,420.1c0-1.489-0.146-2.858-0.446-4.106c-0.293-1.247-0.797-2.339-1.499-3.262c-0.703-0.923-1.642-1.642-2.806-2.16
		c-1.17-0.52-2.644-0.782-4.416-0.782c-1.579,0-2.958,0.236-4.143,0.698c-1.18,0.461-2.155,1.138-2.916,2.024
		c-0.76,0.891-1.327,1.961-1.71,3.209c-0.377,1.254-0.571,2.68-0.571,4.279c0,1.484,0.157,2.854,0.466,4.106
		c0.31,1.248,0.808,2.339,1.5,3.262c0.693,0.923,1.626,1.637,2.812,2.146c1.18,0.509,2.643,0.76,4.394,0.76
		c1.605,0,3-0.23,4.18-0.692c1.185-0.46,2.155-1.132,2.916-2.014c0.76-0.875,1.322-1.94,1.689-3.193
		C274.225,423.126,274.409,421.699,274.409,420.1"/>
	<path clip-path="url(#SVGID_2_)" fill="#FD090E" d="M316.915,426.624c0,1.709-0.404,3.22-1.206,4.525
		c-0.802,1.312-1.935,2.402-3.398,3.283c-1.464,0.876-3.2,1.536-5.198,1.977c-1.998,0.436-4.169,0.656-6.503,0.656
		c-1.41,0-2.753-0.084-4.038-0.252c-1.279-0.169-2.428-0.383-3.44-0.646c-1.017-0.257-1.862-0.519-2.538-0.791
		c-0.677-0.274-1.17-0.524-1.479-0.761s-0.546-0.608-0.719-1.117c-0.168-0.504-0.252-1.253-0.252-2.244
		c0-0.656,0.027-1.181,0.084-1.573c0.058-0.394,0.142-0.708,0.258-0.944c0.11-0.236,0.251-0.394,0.419-0.478
		c0.168-0.078,0.383-0.115,0.635-0.115c0.309,0,0.765,0.142,1.374,0.42c0.603,0.283,1.358,0.592,2.26,0.934
		c0.902,0.335,1.951,0.649,3.147,0.943c1.195,0.294,2.553,0.44,4.074,0.44c0.96,0,1.81-0.078,2.56-0.235
		c0.744-0.157,1.389-0.383,1.94-0.677c0.551-0.294,0.965-0.666,1.248-1.117c0.278-0.451,0.42-0.965,0.42-1.553
		c0-0.676-0.257-1.258-0.782-1.74c-0.519-0.483-1.211-0.907-2.066-1.27c-0.86-0.362-1.836-0.697-2.916-1.012
		c-1.085-0.315-2.197-0.666-3.341-1.051c-1.137-0.382-2.249-0.822-3.335-1.314c-1.085-0.499-2.056-1.107-2.916-1.825
		c-0.86-0.724-1.547-1.589-2.071-2.606c-0.519-1.013-0.782-2.229-0.782-3.65c0-1.437,0.352-2.764,1.06-3.97
		c0.703-1.206,1.715-2.234,3.042-3.089c1.321-0.86,2.937-1.521,4.835-1.998c1.903-0.473,4.033-0.708,6.403-0.708
		c1.18,0,2.328,0.068,3.44,0.203c1.112,0.133,2.119,0.306,3.021,0.505c0.902,0.203,1.662,0.425,2.281,0.66
		c0.619,0.236,1.065,0.441,1.333,0.608c0.267,0.168,0.456,0.336,0.571,0.509c0.11,0.168,0.194,0.373,0.252,0.608
		c0.057,0.236,0.105,0.53,0.147,0.876c0.042,0.352,0.063,0.787,0.063,1.301c0,0.608-0.021,1.106-0.063,1.489
		s-0.111,0.687-0.21,0.912c-0.1,0.226-0.231,0.378-0.404,0.457c-0.168,0.078-0.367,0.115-0.587,0.115
		c-0.257,0-0.651-0.115-1.185-0.352c-0.536-0.236-1.207-0.493-2.009-0.761c-0.803-0.272-1.731-0.524-2.785-0.76
		c-1.059-0.236-2.26-0.357-3.613-0.357c-0.96,0-1.788,0.079-2.491,0.236c-0.708,0.157-1.285,0.383-1.736,0.677
		c-0.451,0.294-0.787,0.64-1.012,1.033c-0.226,0.394-0.336,0.813-0.336,1.264c0,0.703,0.268,1.285,0.802,1.757
		c0.535,0.478,1.238,0.892,2.109,1.253c0.876,0.362,1.867,0.698,2.979,1.013c1.112,0.314,2.239,0.661,3.382,1.033
		c1.138,0.372,2.266,0.802,3.377,1.301c1.112,0.492,2.109,1.101,2.979,1.824c0.876,0.719,1.579,1.584,2.114,2.586
		C316.646,424.06,316.915,425.25,316.915,426.624"/>
	<path clip-path="url(#SVGID_2_)" fill="#FD090E" d="M372.526,419.188c0,1.038-0.289,1.804-0.866,2.297
		c-0.577,0.498-1.374,0.744-2.386,0.744H346.33c0,1.285,0.194,2.449,0.572,3.498c0.383,1.049,0.986,1.94,1.819,2.67
		c0.829,0.734,1.899,1.29,3.21,1.673s2.879,0.577,4.709,0.577c1.857,0,3.493-0.11,4.899-0.32c1.41-0.215,2.627-0.451,3.655-0.713
		c1.028-0.257,1.883-0.493,2.559-0.708c0.677-0.214,1.222-0.32,1.647-0.32c0.252,0,0.461,0.037,0.634,0.115
		c0.168,0.079,0.31,0.221,0.42,0.425c0.115,0.199,0.189,0.488,0.236,0.86c0.042,0.372,0.063,0.839,0.063,1.405
		c0,0.493-0.016,0.918-0.042,1.264c-0.032,0.352-0.074,0.65-0.131,0.897c-0.052,0.246-0.142,0.456-0.252,0.624
		c-0.11,0.168-0.262,0.335-0.446,0.493c-0.183,0.157-0.681,0.372-1.5,0.64c-0.813,0.272-1.856,0.534-3.125,0.797
		c-1.264,0.257-2.717,0.482-4.348,0.671c-1.636,0.194-3.382,0.29-5.239,0.29c-3.351,0-6.288-0.337-8.81-1.014
		c-2.523-0.676-4.625-1.699-6.314-3.078c-1.689-1.374-2.953-3.104-3.782-5.202c-0.833-2.098-1.248-4.553-1.248-7.368
		c0-2.681,0.436-5.098,1.311-7.248c0.871-2.155,2.14-3.98,3.803-5.475c1.662-1.5,3.681-2.644,6.062-3.431
		c2.381-0.791,5.061-1.185,8.045-1.185c3.157,0,5.853,0.372,8.092,1.117c2.239,0.739,4.08,1.772,5.511,3.089
		c1.437,1.321,2.497,2.879,3.173,4.683c0.677,1.805,1.013,3.761,1.013,5.879V419.188z M362.215,416.754
		c0.084-2.386-0.514-4.264-1.793-5.627c-1.28-1.363-3.262-2.046-5.937-2.046c-1.353,0-2.528,0.205-3.529,0.608
		c-0.997,0.404-1.831,0.955-2.491,1.642c-0.661,0.688-1.17,1.495-1.521,2.434c-0.352,0.934-0.556,1.93-0.614,2.989H362.215z"/>
	<path clip-path="url(#SVGID_2_)" fill="#FD090E" d="M413.893,435.141c0,0.226-0.089,0.419-0.257,0.593
		c-0.168,0.168-0.451,0.31-0.845,0.419c-0.393,0.115-0.938,0.199-1.626,0.257c-0.691,0.053-1.541,0.084-2.554,0.084
		c-1.043,0-1.908-0.031-2.601-0.084c-0.692-0.058-1.232-0.142-1.626-0.257c-0.394-0.109-0.677-0.251-0.845-0.419
		c-0.169-0.174-0.251-0.367-0.251-0.593v-17.201c0-1.469-0.137-2.617-0.404-3.451s-0.655-1.547-1.164-2.145
		c-0.504-0.6-1.159-1.06-1.962-1.385c-0.802-0.325-1.741-0.493-2.811-0.493c-1.353,0-2.717,0.398-4.096,1.186
		c-1.379,0.786-2.816,1.935-4.311,3.445v20.044c0,0.226-0.084,0.419-0.252,0.593c-0.168,0.168-0.461,0.31-0.865,0.419
		c-0.409,0.115-0.954,0.199-1.631,0.257c-0.672,0.053-1.531,0.084-2.575,0.084s-1.898-0.031-2.575-0.084
		c-0.676-0.058-1.222-0.142-1.631-0.257c-0.404-0.109-0.692-0.251-0.865-0.419c-0.168-0.174-0.252-0.367-0.252-0.593v-30.149
		c0-0.226,0.068-0.42,0.21-0.588c0.141-0.173,0.393-0.31,0.76-0.425c0.367-0.11,0.839-0.199,1.416-0.252
		c0.577-0.058,1.306-0.083,2.176-0.083c0.903,0,1.647,0.025,2.24,0.083c0.592,0.053,1.049,0.142,1.374,0.252
		c0.32,0.115,0.556,0.252,0.697,0.425c0.142,0.168,0.21,0.362,0.21,0.588v3.481c2.082-1.804,4.206-3.151,6.356-4.054
		c2.156-0.901,4.4-1.353,6.74-1.353c2.564,0,4.725,0.336,6.487,1.012c1.757,0.677,3.183,1.595,4.263,2.759
		c1.086,1.159,1.867,2.518,2.35,4.069c0.478,1.558,0.719,3.425,0.719,5.611V435.141z"/>
	<path clip-path="url(#SVGID_2_)" fill="#FD090E" d="M448.584,394.785c0,1.715-0.436,2.896-1.312,3.551
		c-0.87,0.65-2.491,0.98-4.856,0.98c-2.396,0-4.006-0.314-4.835-0.949c-0.834-0.629-1.248-1.768-1.248-3.415
		c0-1.709,0.429-2.899,1.29-3.565c0.854-0.66,2.486-0.996,4.877-0.996c2.365,0,3.97,0.32,4.814,0.965
		C448.164,391.994,448.584,393.139,448.584,394.785 M447.781,435.141c0,0.226-0.084,0.419-0.252,0.593
		c-0.167,0.168-0.461,0.31-0.865,0.419c-0.409,0.115-0.954,0.199-1.631,0.257c-0.671,0.053-1.531,0.084-2.575,0.084
		c-1.043,0-1.898-0.031-2.574-0.084c-0.677-0.058-1.223-0.142-1.631-0.257c-0.404-0.109-0.692-0.251-0.867-0.419
		c-0.167-0.174-0.251-0.367-0.251-0.593v-30.082c0-0.225,0.084-0.419,0.251-0.592c0.175-0.168,0.463-0.315,0.867-0.436
		c0.408-0.126,0.954-0.221,1.631-0.288c0.676-0.068,1.531-0.1,2.574-0.1c1.044,0,1.904,0.031,2.575,0.1
		c0.677,0.067,1.222,0.162,1.631,0.288c0.404,0.12,0.698,0.268,0.865,0.436c0.168,0.173,0.252,0.367,0.252,0.592V435.141z"/>
	<path clip-path="url(#SVGID_2_)" fill="#FD090E" d="M514.961,435.141c0,0.226-0.084,0.419-0.251,0.593
		c-0.168,0.168-0.451,0.31-0.845,0.419c-0.398,0.115-0.934,0.199-1.604,0.257c-0.677,0.053-1.537,0.084-2.58,0.084
		c-1.071,0-1.94-0.031-2.617-0.084c-0.677-0.058-1.222-0.142-1.626-0.257c-0.409-0.109-0.692-0.251-0.85-0.419
		c-0.152-0.174-0.231-0.367-0.231-0.593v-17.878c0-1.019-0.12-1.94-0.355-2.774c-0.241-0.834-0.608-1.547-1.103-2.145
		c-0.492-0.6-1.111-1.06-1.855-1.385c-0.75-0.325-1.643-0.493-2.687-0.493c-1.263,0-2.548,0.398-3.843,1.186
		c-1.296,0.786-2.701,1.935-4.222,3.445v20.044c0,0.226-0.089,0.419-0.257,0.593c-0.168,0.168-0.456,0.31-0.865,0.419
		c-0.409,0.115-0.949,0.199-1.626,0.257c-0.677,0.053-1.521,0.084-2.533,0.084c-1.044,0-1.904-0.031-2.58-0.084
		c-0.677-0.058-1.217-0.142-1.626-0.257c-0.409-0.109-0.698-0.251-0.865-0.419c-0.168-0.174-0.252-0.367-0.252-0.593v-17.878
		c0-1.019-0.121-1.94-0.361-2.774c-0.241-0.834-0.598-1.547-1.075-2.145c-0.482-0.6-1.103-1.06-1.861-1.385
		c-0.761-0.325-1.647-0.493-2.659-0.493c-1.296,0-2.591,0.398-3.886,1.186c-1.296,0.786-2.69,1.935-4.186,3.445v20.044
		c0,0.226-0.084,0.419-0.252,0.593c-0.167,0.168-0.461,0.31-0.865,0.419c-0.409,0.115-0.954,0.199-1.631,0.257
		c-0.671,0.053-1.531,0.084-2.575,0.084c-1.043,0-1.898-0.031-2.574-0.084c-0.677-0.058-1.223-0.142-1.631-0.257
		c-0.404-0.109-0.692-0.251-0.866-0.419c-0.167-0.174-0.251-0.367-0.251-0.593v-30.149c0-0.226,0.067-0.42,0.209-0.588
		c0.142-0.173,0.394-0.31,0.76-0.425c0.368-0.11,0.84-0.199,1.416-0.252c0.578-0.058,1.307-0.083,2.178-0.083
		c0.901,0,1.646,0.025,2.238,0.083c0.594,0.053,1.05,0.142,1.375,0.252c0.319,0.115,0.556,0.252,0.697,0.425
		c0.142,0.168,0.21,0.362,0.21,0.588v3.481c2.082-1.804,4.158-3.151,6.23-4.054c2.07-0.901,4.231-1.353,6.487-1.353
		c1.547,0,2.941,0.131,4.18,0.387c1.242,0.264,2.344,0.631,3.319,1.118c0.97,0.482,1.81,1.064,2.512,1.741
		c0.703,0.677,1.296,1.432,1.772,2.261c1.128-0.966,2.234-1.799,3.32-2.497c1.08-0.702,2.155-1.269,3.209-1.709
		c1.055-0.44,2.113-0.766,3.168-0.981c1.06-0.215,2.134-0.319,3.229-0.319c2.508,0,4.621,0.336,6.341,1.012
		c1.715,0.677,3.105,1.595,4.158,2.759c1.061,1.159,1.811,2.518,2.262,4.069c0.449,1.558,0.676,3.199,0.676,4.936V435.141z"/>
	<path clip-path="url(#SVGID_2_)" fill="#FD090E" d="M559.957,419.628c0,2.68-0.356,5.098-1.074,7.247
		c-0.719,2.156-1.768,3.986-3.152,5.491c-1.379,1.511-3.094,2.675-5.149,3.482c-2.057,0.813-4.411,1.217-7.06,1.217
		c-1.096,0-2.103-0.084-3.021-0.252c-0.912-0.168-1.8-0.431-2.659-0.776c-0.859-0.352-1.709-0.786-2.554-1.301
		c-0.85-0.519-1.72-1.127-2.622-1.824v14.19c0,0.226-0.084,0.431-0.252,0.608c-0.168,0.184-0.461,0.336-0.865,0.456
		c-0.409,0.126-0.954,0.221-1.631,0.289c-0.671,0.068-1.531,0.1-2.575,0.1c-1.043,0-1.898-0.031-2.574-0.1
		c-0.677-0.068-1.223-0.163-1.632-0.289c-0.403-0.12-0.691-0.272-0.865-0.456c-0.168-0.178-0.251-0.383-0.251-0.608v-42.111
		c0-0.226,0.067-0.42,0.209-0.588c0.142-0.173,0.388-0.31,0.74-0.425c0.351-0.11,0.817-0.199,1.395-0.252
		c0.577-0.058,1.301-0.083,2.177-0.083c0.844,0,1.558,0.025,2.134,0.083c0.577,0.053,1.039,0.142,1.396,0.252
		c0.352,0.115,0.598,0.252,0.739,0.425c0.137,0.168,0.21,0.362,0.21,0.588v3.55c1.096-0.901,2.176-1.693,3.23-2.381
		c1.06-0.687,2.134-1.264,3.23-1.726c1.102-0.461,2.234-0.808,3.403-1.032c1.17-0.221,2.412-0.336,3.739-0.336
		c2.759,0,5.113,0.436,7.054,1.301c1.945,0.87,3.529,2.056,4.751,3.565c1.228,1.511,2.119,3.268,2.686,5.271
		C559.675,415.212,559.957,417.352,559.957,419.628 M548.887,420.236c0-1.285-0.115-2.518-0.356-3.703
		c-0.241-1.18-0.65-2.234-1.228-3.156c-0.576-0.929-1.337-1.663-2.281-2.219c-0.945-0.551-2.118-0.823-3.524-0.823
		c-0.708,0-1.405,0.084-2.092,0.252c-0.692,0.168-1.396,0.445-2.113,0.828c-0.719,0.383-1.458,0.876-2.219,1.484
		c-0.761,0.607-1.563,1.363-2.407,2.266v9.938c1.495,1.511,2.916,2.675,4.269,3.498c1.349,0.823,2.759,1.232,4.222,1.232
		c1.38,0,2.56-0.284,3.53-0.844c0.97-0.562,1.767-1.301,2.386-2.214c0.619-0.912,1.075-1.945,1.374-3.094
		C548.74,422.533,548.887,421.385,548.887,420.236"/>
	<path clip-path="url(#SVGID_2_)" fill="#FD090E" d="M589.284,407.797c0,0.813-0.026,1.479-0.084,1.992
		c-0.058,0.52-0.142,0.929-0.252,1.217c-0.115,0.294-0.263,0.498-0.446,0.608c-0.184,0.115-0.414,0.173-0.697,0.173
		c-0.226,0-0.478-0.042-0.76-0.12c-0.283-0.079-0.599-0.163-0.949-0.252c-0.352-0.089-0.74-0.173-1.166-0.257
		c-0.418-0.079-0.885-0.115-1.394-0.115c-0.588,0-1.18,0.095-1.773,0.288c-0.592,0.189-1.206,0.488-1.835,0.892
		c-0.635,0.409-1.295,0.949-1.987,1.626c-0.692,0.678-1.432,1.511-2.22,2.501v18.791c0,0.226-0.083,0.419-0.25,0.594
		c-0.168,0.167-0.462,0.309-0.866,0.418c-0.408,0.115-0.954,0.199-1.632,0.257c-0.67,0.053-1.53,0.084-2.573,0.084
		c-1.044,0-1.898-0.031-2.575-0.084c-0.677-0.058-1.222-0.142-1.631-0.257c-0.404-0.109-0.692-0.251-0.865-0.418
		c-0.168-0.175-0.252-0.368-0.252-0.594v-30.149c0-0.226,0.068-0.42,0.21-0.588c0.142-0.173,0.393-0.31,0.76-0.425
		c0.367-0.11,0.84-0.199,1.416-0.252c0.577-0.058,1.306-0.083,2.176-0.083c0.903,0,1.647,0.025,2.24,0.083
		c0.593,0.053,1.049,0.142,1.374,0.252c0.319,0.115,0.555,0.252,0.697,0.425c0.142,0.168,0.21,0.362,0.21,0.588v3.755
		c0.986-1.128,1.914-2.055,2.79-2.79c0.87-0.734,1.704-1.312,2.491-1.741c0.786-0.425,1.578-0.724,2.364-0.896
		c0.787-0.167,1.579-0.251,2.366-0.251c0.367,0,0.759,0.015,1.185,0.052c0.42,0.032,0.86,0.089,1.312,0.167
		c0.445,0.079,0.844,0.168,1.181,0.268c0.34,0.105,0.581,0.21,0.738,0.325c0.152,0.11,0.268,0.236,0.336,0.372
		c0.073,0.132,0.137,0.32,0.194,0.557c0.052,0.235,0.094,0.594,0.126,1.064C589.268,406.344,589.284,406.989,589.284,407.797"/>
	<path clip-path="url(#SVGID_2_)" fill="#FD090E" d="M627.269,419.188c0,1.038-0.29,1.804-0.865,2.297
		c-0.577,0.498-1.374,0.744-2.387,0.744h-22.943c0,1.285,0.193,2.449,0.571,3.498c0.383,1.049,0.986,1.94,1.82,2.67
		c0.828,0.734,1.898,1.29,3.209,1.673c1.312,0.383,2.879,0.577,4.71,0.577c1.856,0,3.492-0.11,4.897-0.32
		c1.411-0.215,2.628-0.451,3.655-0.713c1.028-0.257,1.883-0.493,2.56-0.708c0.677-0.214,1.222-0.32,1.646-0.32
		c0.252,0,0.461,0.037,0.635,0.115c0.168,0.079,0.31,0.221,0.42,0.425c0.114,0.199,0.188,0.488,0.235,0.86
		c0.042,0.372,0.063,0.839,0.063,1.405c0,0.493-0.016,0.918-0.042,1.264c-0.031,0.352-0.073,0.65-0.131,0.897
		c-0.052,0.246-0.142,0.456-0.252,0.624s-0.263,0.335-0.446,0.493c-0.184,0.157-0.682,0.372-1.5,0.64
		c-0.813,0.272-1.856,0.534-3.125,0.797c-1.264,0.257-2.717,0.482-4.348,0.671c-1.637,0.194-3.383,0.29-5.239,0.29
		c-3.352,0-6.288-0.337-8.811-1.014c-2.522-0.676-4.625-1.699-6.314-3.078c-1.688-1.374-2.952-3.104-3.78-5.202
		c-0.834-2.098-1.249-4.553-1.249-7.368c0-2.681,0.436-5.098,1.312-7.248c0.87-2.155,2.14-3.98,3.802-5.475
		c1.663-1.5,3.682-2.644,6.063-3.431c2.381-0.791,5.062-1.185,8.044-1.185c3.158,0,5.854,0.372,8.093,1.117
		c2.239,0.739,4.08,1.772,5.512,3.089c1.437,1.321,2.497,2.879,3.173,4.683c0.677,1.805,1.013,3.761,1.013,5.879V419.188z
		 M616.958,416.754c0.084-2.386-0.514-4.264-1.794-5.627c-1.279-1.363-3.262-2.046-5.937-2.046c-1.353,0-2.527,0.205-3.529,0.608
		c-0.996,0.404-1.83,0.955-2.491,1.642c-0.66,0.688-1.169,1.495-1.521,2.434c-0.352,0.934-0.556,1.93-0.613,2.989H616.958z"/>
	<path clip-path="url(#SVGID_2_)" fill="#FD090E" d="M659.17,426.624c0,1.709-0.404,3.22-1.206,4.525
		c-0.803,1.312-1.936,2.402-3.397,3.283c-1.465,0.876-3.2,1.536-5.198,1.977c-1.998,0.436-4.169,0.656-6.503,0.656
		c-1.411,0-2.754-0.084-4.038-0.252c-1.28-0.169-2.429-0.383-3.44-0.646c-1.018-0.257-1.863-0.519-2.538-0.791
		c-0.677-0.274-1.17-0.524-1.479-0.761s-0.545-0.608-0.719-1.117c-0.168-0.504-0.252-1.253-0.252-2.244
		c0-0.656,0.027-1.181,0.084-1.573c0.059-0.394,0.143-0.708,0.258-0.944c0.11-0.236,0.252-0.394,0.42-0.478
		c0.167-0.078,0.383-0.115,0.634-0.115c0.31,0,0.766,0.142,1.374,0.42c0.604,0.283,1.357,0.592,2.261,0.934
		c0.902,0.335,1.951,0.649,3.146,0.943s2.554,0.44,4.075,0.44c0.959,0,1.809-0.078,2.559-0.235c0.745-0.157,1.39-0.383,1.939-0.677
		c0.552-0.294,0.966-0.666,1.249-1.117c0.278-0.451,0.419-0.965,0.419-1.553c0-0.676-0.256-1.258-0.78-1.74
		c-0.52-0.483-1.212-0.907-2.066-1.27c-0.86-0.362-1.836-0.697-2.916-1.012c-1.086-0.315-2.197-0.666-3.341-1.051
		c-1.138-0.382-2.25-0.822-3.335-1.314c-1.086-0.499-2.056-1.107-2.916-1.825c-0.86-0.724-1.547-1.589-2.071-2.606
		c-0.52-1.013-0.781-2.229-0.781-3.65c0-1.437,0.351-2.764,1.059-3.97c0.703-1.206,1.715-2.234,3.042-3.089
		c1.321-0.86,2.937-1.521,4.835-1.998c1.904-0.473,4.033-0.708,6.403-0.708c1.181,0,2.329,0.068,3.44,0.203
		c1.112,0.133,2.119,0.306,3.021,0.505c0.901,0.203,1.662,0.425,2.281,0.66c0.618,0.236,1.064,0.441,1.332,0.608
		c0.267,0.168,0.456,0.336,0.571,0.509c0.11,0.168,0.194,0.373,0.252,0.608c0.058,0.236,0.104,0.53,0.146,0.876
		c0.042,0.352,0.063,0.787,0.063,1.301c0,0.608-0.021,1.106-0.063,1.489s-0.11,0.687-0.21,0.912s-0.23,0.378-0.403,0.457
		c-0.168,0.078-0.367,0.115-0.588,0.115c-0.257,0-0.65-0.115-1.185-0.352c-0.535-0.236-1.207-0.493-2.009-0.761
		c-0.803-0.272-1.73-0.524-2.785-0.76c-1.06-0.236-2.26-0.357-3.613-0.357c-0.96,0-1.788,0.079-2.491,0.236
		c-0.708,0.157-1.284,0.383-1.735,0.677s-0.787,0.64-1.013,1.033c-0.227,0.394-0.335,0.813-0.335,1.264
		c0,0.703,0.268,1.285,0.802,1.757c0.535,0.478,1.238,0.892,2.108,1.253c0.876,0.362,1.867,0.698,2.979,1.013
		c1.112,0.314,2.239,0.661,3.383,1.033c1.139,0.372,2.266,0.802,3.378,1.301c1.111,0.492,2.107,1.101,2.979,1.824
		c0.876,0.719,1.578,1.584,2.113,2.586S659.17,425.25,659.17,426.624"/>
	<path clip-path="url(#SVGID_2_)" fill="#FD090E" d="M675.228,394.785c0,1.715-0.436,2.896-1.311,3.551
		c-0.871,0.65-2.491,0.98-4.856,0.98c-2.396,0-4.007-0.314-4.835-0.949c-0.834-0.629-1.249-1.768-1.249-3.415
		c0-1.709,0.43-2.899,1.291-3.565c0.854-0.66,2.485-0.996,4.877-0.996c2.365,0,3.969,0.32,4.814,0.965
		C674.809,391.994,675.228,393.139,675.228,394.785 M674.426,435.141c0,0.226-0.084,0.419-0.252,0.593
		c-0.168,0.168-0.462,0.31-0.865,0.419c-0.409,0.115-0.955,0.199-1.631,0.257c-0.672,0.053-1.532,0.084-2.575,0.084
		c-1.044,0-1.898-0.031-2.575-0.084c-0.677-0.058-1.222-0.142-1.631-0.257c-0.404-0.109-0.692-0.251-0.865-0.419
		c-0.169-0.174-0.252-0.367-0.252-0.593v-30.082c0-0.225,0.083-0.419,0.252-0.592c0.173-0.168,0.461-0.315,0.865-0.436
		c0.409-0.126,0.954-0.221,1.631-0.288c0.677-0.068,1.531-0.1,2.575-0.1c1.043,0,1.903,0.031,2.575,0.1
		c0.676,0.067,1.222,0.162,1.631,0.288c0.403,0.12,0.697,0.268,0.865,0.436c0.168,0.173,0.252,0.367,0.252,0.592V435.141z"/>
	<path clip-path="url(#SVGID_2_)" fill="#FD090E" d="M719.763,419.764c0,2.565-0.42,4.909-1.264,7.028
		c-0.845,2.118-2.13,3.943-3.845,5.475c-1.72,1.531-3.875,2.717-6.466,3.551c-2.591,0.833-5.617,1.248-9.083,1.248
		c-3.352,0-6.268-0.373-8.742-1.112c-2.481-0.744-4.537-1.824-6.173-3.246c-1.631-1.421-2.843-3.167-3.629-5.239
		c-0.792-2.071-1.186-4.437-1.186-7.096c0-2.569,0.43-4.919,1.29-7.048c0.854-2.129,2.145-3.954,3.865-5.476
		c1.715-1.521,3.865-2.7,6.44-3.534c2.58-0.829,5.601-1.248,9.062-1.248c3.383,0,6.31,0.367,8.79,1.096
		c2.475,0.734,4.525,1.81,6.146,3.23c1.621,1.422,2.822,3.168,3.614,5.239C719.369,414.703,719.763,417.079,719.763,419.764
		 M708.823,420.1c0-1.489-0.147-2.858-0.446-4.106c-0.294-1.248-0.797-2.339-1.5-3.262c-0.702-0.923-1.642-1.642-2.806-2.16
		c-1.169-0.52-2.643-0.782-4.415-0.782c-1.58,0-2.958,0.236-4.144,0.698c-1.18,0.461-2.155,1.138-2.916,2.024
		c-0.76,0.891-1.326,1.961-1.709,3.209c-0.378,1.254-0.572,2.68-0.572,4.279c0,1.484,0.157,2.854,0.467,4.106
		c0.31,1.248,0.808,2.339,1.5,3.262s1.626,1.637,2.811,2.146c1.181,0.509,2.644,0.76,4.396,0.76c1.604,0,2.999-0.23,4.18-0.692
		c1.185-0.461,2.155-1.132,2.916-2.014c0.76-0.875,1.321-1.94,1.688-3.193C708.64,423.126,708.823,421.699,708.823,420.1
		 M701.638,390.191c0.2-0.252,0.441-0.462,0.719-0.646c0.283-0.177,0.635-0.318,1.06-0.418c0.42-0.105,0.954-0.179,1.604-0.221
		c0.646-0.047,1.438-0.068,2.365-0.068c1.296,0,2.318,0.042,3.063,0.137c0.745,0.089,1.28,0.215,1.605,0.389
		c0.325,0.167,0.472,0.366,0.445,0.587c-0.031,0.226-0.173,0.467-0.425,0.713l-8.196,7.842c-0.226,0.225-0.451,0.408-0.677,0.555
		s-0.514,0.268-0.865,0.356s-0.792,0.157-1.327,0.205c-0.54,0.042-1.211,0.067-2.029,0.067c-0.987,0-1.768-0.036-2.345-0.104
		c-0.576-0.068-0.98-0.173-1.206-0.32c-0.226-0.146-0.314-0.33-0.272-0.556s0.188-0.487,0.44-0.781L701.638,390.191z"/>
	<path clip-path="url(#SVGID_2_)" fill="#FD090E" d="M760.794,435.141c0,0.226-0.089,0.419-0.257,0.593
		c-0.168,0.168-0.451,0.31-0.846,0.419c-0.392,0.115-0.938,0.199-1.625,0.257c-0.691,0.053-1.542,0.084-2.554,0.084
		c-1.043,0-1.908-0.031-2.601-0.084c-0.692-0.058-1.232-0.142-1.626-0.257c-0.394-0.109-0.678-0.251-0.846-0.419
		c-0.167-0.174-0.251-0.367-0.251-0.593v-17.201c0-1.469-0.136-2.617-0.403-3.451s-0.655-1.547-1.164-2.145
		c-0.504-0.6-1.159-1.06-1.961-1.385c-0.804-0.325-1.741-0.493-2.812-0.493c-1.353,0-2.717,0.398-4.096,1.186
		c-1.379,0.786-2.816,1.935-4.311,3.445v20.044c0,0.226-0.085,0.419-0.253,0.593c-0.168,0.168-0.461,0.31-0.864,0.419
		c-0.409,0.115-0.955,0.199-1.631,0.257c-0.673,0.053-1.531,0.084-2.575,0.084s-1.898-0.031-2.575-0.084
		c-0.677-0.058-1.222-0.142-1.631-0.257c-0.403-0.109-0.692-0.251-0.865-0.419c-0.168-0.174-0.252-0.367-0.252-0.593v-30.149
		c0-0.226,0.068-0.42,0.21-0.588c0.141-0.173,0.393-0.31,0.761-0.425c0.367-0.11,0.838-0.199,1.416-0.252
		c0.576-0.058,1.306-0.083,2.175-0.083c0.903,0,1.648,0.025,2.24,0.083c0.592,0.053,1.049,0.142,1.374,0.252
		c0.32,0.115,0.557,0.252,0.698,0.425c0.142,0.168,0.209,0.362,0.209,0.588v3.481c2.082-1.804,4.206-3.151,6.356-4.054
		c2.155-0.901,4.4-1.353,6.739-1.353c2.564,0,4.725,0.336,6.487,1.012c1.757,0.677,3.183,1.595,4.264,2.759
		c1.085,1.159,1.866,2.518,2.349,4.069c0.478,1.558,0.719,3.425,0.719,5.611V435.141z"/>
	<path clip-path="url(#SVGID_2_)" fill-rule="evenodd" clip-rule="evenodd" fill="#FD090E" d="M624.008,137.41h51.056
		c-12.351,44.453-24.784,88.812-37.159,133.237c0.486,0.079,0.694-0.486,0.986-0.755c23.286-21.589,47.215-43.235,70.568-64.838
		h52.631c0.14,0.312-0.51,0.618-0.887,0.971c-23.69,22.231-48.316,44.186-72.049,66.457c18.875,36.27,37.891,72.953,56.475,109.176
		H693c-2.593-4.304-4.746-8.891-7.096-13.376c-16.353-31.229-32.448-63.047-48.887-94.293
		c-6.947,24.508-13.784,49.142-20.599,73.796h-52.926C583.676,277.678,603.719,207.399,624.008,137.41"/>
	<path clip-path="url(#SVGID_2_)" fill-rule="evenodd" clip-rule="evenodd" fill="#FD090E" d="M88.04,137.734h58.151
		c-15.795,57.407-31.814,114.558-47.604,171.966h82.199c-3.442,12.739-7.008,25.341-10.45,38.085H29.891
		C49.123,277.604,68.563,207.647,88.04,137.734"/>
	<path clip-path="url(#SVGID_2_)" fill-rule="evenodd" clip-rule="evenodd" fill="#FD090E" d="M391.21,162.115
		c-3.702,14.146-7.913,28.665-11.826,42.937h36.467c-2.854,10.469-5.769,20.875-8.675,31.287h-36.96
		c-5.241,19.114-11.127,39.513-16.361,59.445c-1.531,5.837-4.507,15.509-1.28,21.036c5.159,8.831,22.168,5.713,34.2,5.61
		c-2.572,8.439-5.025,17.009-7.588,25.458c-21.206,4.31-52.898,5.303-69.685-4.528c-5.782-3.39-10.463-8.459-11.922-16.075
		c-1.673-8.725,1.758-17.412,3.646-24.168c6.277-22.454,12.452-44.64,18.826-66.778h-29.176c2.944-10.37,5.834-20.801,8.671-31.287
		h29.965c2.273-7.652,4.382-15.484,6.505-23.304C354.355,175.141,372.904,168.763,391.21,162.115"/>
	<path clip-path="url(#SVGID_2_)" fill-rule="evenodd" clip-rule="evenodd" fill="#FD090E" d="M564.38,288.878
		c-36.653-0.158-73.392-0.218-110.092-0.322c-3.413,8.376-3.979,22.871,1.381,29.128c5.244,6.12,15.377,7.724,25.329,8.415
		c21.984,1.526,42.532-2.161,61.009-4.854c-2.416,8.898-4.704,17.937-7.196,26.754c-13.157,1.749-27.089,4.063-41.886,4.745
		c-30.511,1.408-59.627-0.813-76.876-16.72c-8.609-7.936-13.538-19.96-12.223-37.329c0.573-7.579,2.246-14.676,4.141-21.253
		c9.376-32.567,27.33-55.864,55.882-67.21c11.563-4.595,24.677-6.905,39.521-7.662c25.786-1.311,48.094,4.132,59.434,19.313
		c5.531,7.404,9.263,19.005,8.476,32.473C570.523,267.262,567.257,277.757,564.38,288.878 M523.181,251.442
		c0.758-17.301-9.022-24.936-25.329-23.624c-20.599,1.655-29.955,17.453-36.073,34.845c19.88,0.031,39.663,0.17,59.63,0.11
		C522.156,258.886,523.001,255.571,523.181,251.442"/>
	<path clip-path="url(#SVGID_2_)" fill-rule="evenodd" clip-rule="evenodd" fill="#FD090E" d="M230.064,205.053h53.618
		c-13.092,47.669-26.343,95.155-39.524,142.732h-53.715C203.651,300.205,216.804,252.574,230.064,205.053"/>
	<path clip-path="url(#SVGID_2_)" fill-rule="evenodd" clip-rule="evenodd" fill="#FD090E" d="M248.791,138.633h53.616
		c-4.002,14.642-8.11,29.169-12.122,43.8h-27.696c1.986-7.642,4.18-15.06,6.209-22.654h-25.921
		C244.863,152.748,246.74,145.593,248.791,138.633"/>
	<path clip-path="url(#SVGID_2_)" fill-rule="evenodd" clip-rule="evenodd" fill="#FD090E" d="M246.072,117.486
		c1.929-6.986,3.855-13.977,5.815-20.928h25.921c-1.913,7.041-3.9,13.999-5.816,21.037H246.17
		c-2.226,6.772-3.935,14.103-6.012,21.037h-25.626c1.796-7.131,3.865-13.965,5.717-21.037h25.625
		C245.989,117.612,246.05,117.571,246.072,117.486"/>
	<path clip-path="url(#SVGID_2_)" fill="#FD090E" d="M472.135,480.671c0,2.328-0.363,4.39-1.09,6.184s-1.784,3.306-3.172,4.534
		c-1.389,1.229-3.092,2.162-5.109,2.803c-2.02,0.642-4.396,0.962-7.129,0.962h-3.461v13.232c0,0.214-0.07,0.406-0.209,0.576
		c-0.139,0.171-0.367,0.311-0.688,0.417c-0.32,0.107-0.747,0.192-1.281,0.256c-0.534,0.064-1.218,0.097-2.051,0.097
		c-0.812,0-1.489-0.032-2.034-0.097c-0.545-0.063-0.978-0.148-1.298-0.256c-0.32-0.106-0.545-0.246-0.673-0.417
		c-0.129-0.17-0.192-0.362-0.192-0.576v-37.294c0-1.005,0.261-1.758,0.785-2.26c0.521-0.502,1.212-0.753,2.066-0.753h9.772
		c0.982,0,1.917,0.037,2.803,0.112c0.887,0.075,1.949,0.235,3.188,0.48c1.239,0.246,2.493,0.7,3.765,1.361
		c1.271,0.663,2.355,1.501,3.252,2.516c0.897,1.015,1.581,2.2,2.05,3.557C471.899,477.462,472.135,478.983,472.135,480.671
		 M463.324,481.279c0-1.452-0.257-2.647-0.771-3.588c-0.512-0.939-1.142-1.635-1.89-2.083s-1.533-0.731-2.354-0.849
		c-0.823-0.117-1.673-0.177-2.548-0.177h-3.588v14.065h3.781c1.346,0,2.472-0.181,3.379-0.544c0.908-0.363,1.65-0.87,2.228-1.522
		c0.577-0.651,1.015-1.431,1.313-2.339C463.174,483.336,463.324,482.348,463.324,481.279"/>
	<path clip-path="url(#SVGID_2_)" fill="#FD090E" d="M486.873,470.193c0,1.624-0.331,2.745-0.993,3.364
		c-0.662,0.62-1.89,0.93-3.685,0.93c-1.816,0-3.039-0.299-3.668-0.897c-0.631-0.598-0.945-1.677-0.945-3.236
		c0-1.623,0.325-2.749,0.977-3.38c0.651-0.63,1.885-0.945,3.701-0.945c1.794,0,3.012,0.305,3.651,0.913
		C486.553,467.551,486.873,468.635,486.873,470.193 M486.265,508.449c0,0.214-0.064,0.401-0.192,0.562
		c-0.129,0.16-0.348,0.294-0.656,0.4c-0.311,0.106-0.722,0.187-1.234,0.24c-0.512,0.053-1.164,0.08-1.954,0.08
		s-1.442-0.027-1.954-0.08c-0.514-0.054-0.925-0.134-1.234-0.24s-0.528-0.24-0.656-0.4c-0.129-0.16-0.192-0.348-0.192-0.562v-28.516
		c0-0.213,0.063-0.4,0.192-0.561c0.128-0.16,0.347-0.299,0.656-0.416s0.721-0.209,1.234-0.272c0.512-0.064,1.164-0.097,1.954-0.097
		s1.442,0.032,1.954,0.097c0.513,0.063,0.924,0.155,1.234,0.272c0.309,0.117,0.527,0.256,0.656,0.416
		c0.128,0.16,0.192,0.348,0.192,0.561V508.449z"/>
	<path clip-path="url(#SVGID_2_)" fill="#FD090E" d="M520.707,493.327c0,0.982-0.219,1.709-0.656,2.179s-1.041,0.704-1.811,0.704
		h-17.397c0,1.218,0.144,2.323,0.433,3.316c0.288,0.993,0.748,1.838,1.377,2.531c0.631,0.694,1.442,1.223,2.436,1.586
		c0.994,0.363,2.184,0.545,3.572,0.545c1.41,0,2.648-0.102,3.717-0.305c1.068-0.202,1.991-0.427,2.771-0.673
		c0.779-0.245,1.426-0.47,1.938-0.673c0.513-0.202,0.929-0.304,1.25-0.304c0.192,0,0.353,0.037,0.48,0.111
		c0.128,0.075,0.235,0.209,0.32,0.4c0.085,0.192,0.144,0.465,0.177,0.817c0.031,0.352,0.047,0.796,0.047,1.33
		c0,0.47-0.01,0.87-0.032,1.201c-0.021,0.331-0.053,0.614-0.095,0.849c-0.043,0.235-0.107,0.433-0.193,0.593
		s-0.197,0.315-0.337,0.465c-0.138,0.149-0.517,0.353-1.136,0.609c-0.621,0.256-1.41,0.507-2.371,0.753
		c-0.962,0.245-2.063,0.459-3.301,0.641c-1.238,0.181-2.563,0.272-3.973,0.272c-2.543,0-4.77-0.32-6.681-0.962
		c-1.911-0.641-3.509-1.612-4.791-2.915c-1.28-1.303-2.237-2.948-2.866-4.935c-0.632-1.986-0.945-4.314-0.945-6.984
		c0-2.542,0.33-4.833,0.993-6.873c0.661-2.039,1.623-3.77,2.884-5.191c1.26-1.419,2.793-2.503,4.598-3.251
		c1.805-0.747,3.839-1.121,6.104-1.121c2.393,0,4.438,0.353,6.136,1.057c1.698,0.705,3.092,1.683,4.181,2.932
		c1.09,1.25,1.891,2.729,2.403,4.438c0.513,1.71,0.769,3.568,0.769,5.575V493.327z M512.89,491.02
		c0.063-2.264-0.39-4.042-1.361-5.334c-0.972-1.293-2.473-1.938-4.502-1.938c-1.024,0-1.917,0.192-2.675,0.576
		c-0.759,0.384-1.389,0.903-1.891,1.554c-0.502,0.652-0.887,1.421-1.154,2.308c-0.267,0.887-0.422,1.831-0.464,2.835H512.89z"/>
	<path clip-path="url(#SVGID_2_)" fill="#FD090E" d="M554.639,508.449c0,0.214-0.064,0.401-0.193,0.562
		c-0.128,0.16-0.342,0.294-0.641,0.4s-0.71,0.187-1.233,0.24c-0.523,0.053-1.169,0.08-1.938,0.08c-0.791,0-1.447-0.027-1.971-0.08
		c-0.523-0.054-0.934-0.134-1.233-0.24s-0.513-0.24-0.641-0.4s-0.192-0.348-0.192-0.562v-16.308c0-1.389-0.102-2.478-0.305-3.269
		c-0.203-0.79-0.496-1.468-0.881-2.034s-0.881-1.004-1.49-1.313c-0.607-0.31-1.318-0.465-2.13-0.465
		c-1.025,0-2.062,0.374-3.108,1.121c-1.047,0.748-2.136,1.838-3.268,3.269v18.999c0,0.214-0.064,0.401-0.192,0.562
		s-0.348,0.294-0.657,0.4s-0.721,0.187-1.233,0.24c-0.513,0.053-1.164,0.08-1.954,0.08c-0.791,0-1.441-0.027-1.955-0.08
		c-0.512-0.054-0.924-0.134-1.232-0.24c-0.311-0.106-0.529-0.24-0.657-0.4s-0.192-0.348-0.192-0.562V479.87
		c0-0.214,0.053-0.399,0.16-0.561c0.106-0.16,0.299-0.294,0.576-0.4c0.277-0.107,0.636-0.188,1.074-0.241
		c0.438-0.053,0.987-0.08,1.65-0.08c0.683,0,1.249,0.027,1.697,0.08c0.449,0.054,0.796,0.134,1.041,0.241
		c0.246,0.106,0.422,0.24,0.529,0.4c0.106,0.161,0.16,0.347,0.16,0.561v3.3c1.58-1.709,3.188-2.99,4.822-3.845
		c1.634-0.854,3.337-1.281,5.109-1.281c1.944,0,3.584,0.32,4.918,0.961c1.336,0.641,2.414,1.512,3.236,2.611
		c0.822,1.101,1.416,2.387,1.779,3.86c0.362,1.475,0.545,3.247,0.545,5.319V508.449z"/>
	<path clip-path="url(#SVGID_2_)" fill="#FD090E" d="M582.673,500.376c0,1.623-0.304,3.055-0.913,4.293
		c-0.609,1.239-1.469,2.274-2.579,3.107c-1.11,0.834-2.425,1.458-3.94,1.875c-1.518,0.416-3.162,0.625-4.936,0.625
		c-1.067,0-2.088-0.08-3.059-0.24c-0.973-0.161-1.843-0.364-2.611-0.609c-0.77-0.245-1.41-0.496-1.923-0.753
		c-0.513-0.256-0.887-0.496-1.122-0.721c-0.234-0.225-0.416-0.577-0.544-1.057c-0.128-0.481-0.192-1.191-0.192-2.132
		c0-0.618,0.021-1.115,0.064-1.489s0.107-0.673,0.191-0.897c0.086-0.224,0.193-0.373,0.32-0.448
		c0.129-0.074,0.289-0.112,0.481-0.112c0.234,0,0.581,0.134,1.041,0.4c0.459,0.268,1.03,0.561,1.714,0.881s1.479,0.62,2.387,0.897
		c0.908,0.278,1.939,0.417,3.092,0.417c0.727,0,1.373-0.075,1.939-0.224c0.566-0.15,1.057-0.364,1.474-0.642
		c0.417-0.276,0.731-0.63,0.944-1.058c0.214-0.427,0.321-0.918,0.321-1.474c0-0.641-0.198-1.19-0.593-1.65
		c-0.396-0.459-0.919-0.859-1.57-1.201s-1.389-0.662-2.211-0.962c-0.822-0.299-1.666-0.629-2.531-0.993
		c-0.865-0.362-1.709-0.779-2.531-1.249s-1.559-1.047-2.211-1.73c-0.65-0.684-1.174-1.506-1.569-2.467s-0.593-2.115-0.593-3.461
		c0-1.366,0.268-2.621,0.801-3.765c0.534-1.141,1.303-2.119,2.307-2.932c1.004-0.812,2.228-1.441,3.669-1.89
		c1.442-0.449,3.06-0.673,4.854-0.673c0.896,0,1.768,0.063,2.611,0.192c0.844,0.128,1.607,0.288,2.291,0.48s1.26,0.4,1.73,0.624
		c0.469,0.225,0.805,0.417,1.009,0.577c0.202,0.16,0.347,0.32,0.433,0.48c0.085,0.16,0.148,0.353,0.191,0.577
		c0.043,0.224,0.08,0.502,0.113,0.833c0.031,0.331,0.047,0.742,0.047,1.233c0,0.576-0.016,1.047-0.047,1.409
		c-0.033,0.364-0.086,0.652-0.16,0.865c-0.076,0.214-0.177,0.358-0.305,0.433c-0.129,0.075-0.278,0.112-0.449,0.112
		c-0.191,0-0.491-0.112-0.896-0.336c-0.406-0.225-0.914-0.465-1.522-0.722c-0.608-0.256-1.313-0.496-2.114-0.721
		c-0.801-0.224-1.715-0.336-2.74-0.336c-0.727,0-1.355,0.075-1.89,0.224c-0.534,0.15-0.972,0.364-1.313,0.642
		s-0.599,0.604-0.77,0.977c-0.17,0.374-0.256,0.774-0.256,1.202c0,0.662,0.203,1.217,0.608,1.666
		c0.405,0.448,0.94,0.844,1.604,1.186c0.661,0.342,1.413,0.662,2.257,0.961s1.699,0.625,2.564,0.978
		c0.865,0.352,1.719,0.764,2.563,1.233s1.597,1.047,2.259,1.729c0.662,0.685,1.196,1.501,1.603,2.451
		C582.47,497.946,582.673,499.073,582.673,500.376"/>
	<path clip-path="url(#SVGID_2_)" fill="#FD090E" d="M613.08,508.546c0,0.299-0.107,0.534-0.32,0.705
		c-0.215,0.171-0.551,0.293-1.01,0.368c-0.459,0.074-1.137,0.112-2.035,0.112c-0.961,0-1.66-0.038-2.098-0.112
		c-0.439-0.075-0.748-0.197-0.93-0.368s-0.271-0.406-0.271-0.705v-2.275c-1.176,1.261-2.516,2.243-4.021,2.948
		s-3.178,1.058-5.016,1.058c-1.516,0-2.91-0.199-4.18-0.593c-1.271-0.396-2.371-0.982-3.301-1.763
		c-0.93-0.779-1.65-1.746-2.162-2.899c-0.514-1.153-0.77-2.499-0.77-4.037c0-1.666,0.325-3.113,0.977-4.342
		c0.652-1.228,1.623-2.242,2.916-3.044c1.293-0.801,2.9-1.394,4.822-1.777c1.922-0.385,4.154-0.577,6.697-0.577h2.787v-1.73
		c0-0.896-0.092-1.682-0.273-2.354s-0.48-1.233-0.896-1.683c-0.416-0.448-0.973-0.779-1.666-0.993
		c-0.695-0.213-1.555-0.32-2.58-0.32c-1.346,0-2.547,0.149-3.604,0.449c-1.057,0.298-1.992,0.63-2.805,0.993
		c-0.811,0.363-1.489,0.694-2.033,0.993c-0.545,0.299-0.988,0.448-1.331,0.448c-0.233,0-0.442-0.074-0.625-0.225
		c-0.181-0.148-0.331-0.362-0.447-0.641c-0.118-0.277-0.208-0.619-0.272-1.025c-0.064-0.405-0.096-0.854-0.096-1.346
		c0-0.661,0.053-1.186,0.16-1.569c0.106-0.385,0.309-0.731,0.608-1.042c0.298-0.309,0.821-0.651,1.569-1.025
		c0.748-0.373,1.623-0.722,2.629-1.041c1.002-0.32,2.098-0.582,3.283-0.785c1.186-0.202,2.408-0.304,3.668-0.304
		c2.244,0,4.16,0.219,5.752,0.656c1.59,0.438,2.9,1.111,3.924,2.019c1.025,0.908,1.773,2.078,2.244,3.509
		c0.469,1.431,0.705,3.129,0.705,5.094V508.546z M605.166,496.307h-3.076c-1.303,0-2.414,0.096-3.332,0.288
		c-0.92,0.191-1.666,0.48-2.242,0.865c-0.578,0.385-1,0.849-1.266,1.394c-0.268,0.545-0.402,1.17-0.402,1.874
		c0,1.197,0.38,2.137,1.139,2.82c0.758,0.684,1.811,1.025,3.156,1.025c1.131,0,2.172-0.289,3.123-0.865
		c0.951-0.577,1.918-1.422,2.9-2.531V496.307z"/>
	<path clip-path="url(#SVGID_2_)" fill="#FD090E" d="M667.195,508.449c0,0.235-0.043,0.433-0.128,0.593
		c-0.087,0.161-0.289,0.294-0.609,0.401c-0.32,0.106-0.79,0.181-1.409,0.224c-0.62,0.043-1.464,0.064-2.531,0.064
		c-0.897,0-1.613-0.021-2.147-0.064s-0.956-0.123-1.265-0.24c-0.311-0.117-0.529-0.267-0.657-0.448
		c-0.128-0.181-0.235-0.4-0.32-0.657l-3.717-9.26c-0.448-1.046-0.888-1.974-1.313-2.787c-0.428-0.811-0.902-1.49-1.426-2.034
		c-0.523-0.545-1.127-0.956-1.811-1.233s-1.474-0.417-2.371-0.417h-2.627v15.796c0,0.214-0.069,0.406-0.208,0.577
		c-0.14,0.171-0.369,0.31-0.689,0.417c-0.32,0.106-0.748,0.191-1.281,0.255c-0.534,0.064-1.218,0.097-2.051,0.097
		c-0.812,0-1.49-0.032-2.034-0.097c-0.545-0.063-0.978-0.148-1.298-0.255c-0.321-0.107-0.545-0.246-0.673-0.417
		s-0.192-0.363-0.192-0.577v-37.647c0-0.939,0.24-1.618,0.721-2.034c0.48-0.417,1.073-0.625,1.778-0.625h10.733
		c1.09,0,1.986,0.021,2.691,0.064c0.704,0.043,1.346,0.096,1.923,0.16c1.666,0.235,3.166,0.641,4.501,1.217
		c1.335,0.577,2.468,1.33,3.396,2.259c0.93,0.93,1.64,2.03,2.131,3.301s0.737,2.729,0.737,4.373c0,1.389-0.177,2.654-0.529,3.797
		s-0.871,2.163-1.554,3.06c-0.684,0.897-1.528,1.678-2.531,2.339c-1.004,0.663-2.146,1.197-3.428,1.603
		c0.619,0.299,1.201,0.662,1.746,1.089c0.544,0.428,1.057,0.945,1.537,1.555c0.48,0.608,0.935,1.303,1.362,2.082
		c0.427,0.78,0.844,1.661,1.249,2.644l3.493,8.17c0.32,0.813,0.533,1.405,0.641,1.778
		C667.142,507.942,667.195,508.236,667.195,508.449 M656.334,480.318c0-1.366-0.311-2.521-0.93-3.46
		c-0.62-0.94-1.634-1.602-3.044-1.986c-0.428-0.107-0.913-0.192-1.458-0.257c-0.544-0.064-1.297-0.096-2.259-0.096h-3.78v11.759
		h4.293c1.196,0,2.242-0.145,3.141-0.433c0.896-0.289,1.645-0.694,2.242-1.218s1.047-1.148,1.346-1.873
		C656.184,482.027,656.334,481.216,656.334,480.318"/>
	<path clip-path="url(#SVGID_2_)" fill="#FD090E" d="M700.646,493.871c0,2.436-0.32,4.657-0.962,6.665
		c-0.641,2.008-1.612,3.738-2.915,5.19c-1.304,1.452-2.938,2.574-4.902,3.364c-1.966,0.79-4.262,1.186-6.889,1.186
		c-2.542,0-4.753-0.353-6.632-1.058c-1.88-0.705-3.439-1.73-4.679-3.076c-1.238-1.346-2.157-3.001-2.755-4.966
		c-0.599-1.964-0.897-4.208-0.897-6.729c0-2.436,0.325-4.662,0.978-6.681c0.651-2.019,1.629-3.748,2.932-5.19
		c1.303-1.441,2.932-2.558,4.886-3.348c1.955-0.79,4.246-1.186,6.873-1.186c2.563,0,4.784,0.347,6.664,1.041s3.434,1.714,4.662,3.06
		c1.228,1.346,2.141,3.002,2.739,4.967C700.346,489.076,700.646,491.33,700.646,493.871 M692.347,494.191
		c0-1.409-0.112-2.707-0.336-3.893c-0.226-1.186-0.604-2.216-1.138-3.092c-0.534-0.876-1.244-1.559-2.131-2.051
		c-0.887-0.491-2.002-0.736-3.348-0.736c-1.197,0-2.243,0.219-3.141,0.656c-0.896,0.438-1.635,1.079-2.21,1.923
		c-0.577,0.844-1.011,1.858-1.298,3.044c-0.289,1.186-0.433,2.536-0.433,4.053c0,1.41,0.117,2.707,0.353,3.893
		c0.234,1.186,0.613,2.217,1.137,3.092c0.522,0.877,1.234,1.555,2.131,2.035c0.897,0.48,2.008,0.721,3.332,0.721
		c1.218,0,2.275-0.219,3.172-0.657c0.897-0.438,1.635-1.073,2.211-1.906c0.577-0.833,1.004-1.842,1.282-3.027
		C692.208,497.06,692.347,495.709,692.347,494.191"/>
	<path clip-path="url(#SVGID_2_)" fill="#FD090E" d="M715.703,509.411c0,2.242-0.192,4.058-0.576,5.446
		c-0.385,1.389-0.967,2.558-1.746,3.509c-0.78,0.95-1.758,1.666-2.932,2.146c-1.176,0.48-2.553,0.721-4.134,0.721
		c-0.876,0-1.623-0.059-2.242-0.176c-0.62-0.118-1.068-0.24-1.346-0.368c-0.277-0.129-0.47-0.289-0.577-0.481
		c-0.107-0.191-0.182-0.41-0.225-0.656c-0.042-0.246-0.074-0.523-0.096-0.833c-0.021-0.311-0.032-0.711-0.032-1.202
		c0-0.598,0.016-1.094,0.048-1.489c0.031-0.396,0.092-0.711,0.177-0.945c0.085-0.235,0.182-0.406,0.288-0.513
		c0.107-0.106,0.246-0.16,0.417-0.16c0.106,0,0.325,0.026,0.656,0.08c0.331,0.053,0.689,0.08,1.073,0.08
		c0.556,0,1.036-0.086,1.442-0.256c0.405-0.172,0.736-0.444,0.993-0.817c0.256-0.374,0.448-0.854,0.576-1.441
		c0.129-0.588,0.192-1.522,0.192-2.804v-29.317c0-0.213,0.064-0.4,0.192-0.561c0.128-0.159,0.342-0.299,0.641-0.416
		s0.705-0.209,1.218-0.272c0.513-0.064,1.163-0.096,1.954-0.096c0.79,0,1.442,0.031,1.955,0.096
		c0.513,0.063,0.922,0.155,1.233,0.272c0.31,0.117,0.528,0.257,0.656,0.416c0.129,0.16,0.192,0.348,0.192,0.561V509.411z
		 M716.313,470.193c0,1.624-0.326,2.745-0.979,3.364c-0.651,0.62-1.885,0.93-3.7,0.93c-1.794,0-3.012-0.299-3.652-0.897
		c-0.641-0.598-0.961-1.677-0.961-3.236c0-1.623,0.331-2.749,0.993-3.38c0.662-0.63,1.891-0.945,3.685-0.945
		c1.815,0,3.038,0.305,3.669,0.913C715.997,467.551,716.313,468.635,716.313,470.193"/>
	<path clip-path="url(#SVGID_2_)" fill="#FD090E" d="M752.679,493.871c0,2.436-0.32,4.657-0.962,6.665
		c-0.641,2.008-1.612,3.738-2.915,5.19c-1.304,1.452-2.938,2.574-4.902,3.364c-1.966,0.79-4.262,1.186-6.889,1.186
		c-2.542,0-4.753-0.353-6.632-1.058c-1.88-0.705-3.439-1.73-4.679-3.076c-1.238-1.346-2.157-3.001-2.755-4.966
		c-0.599-1.964-0.897-4.208-0.897-6.729c0-2.436,0.325-4.662,0.978-6.681c0.651-2.019,1.629-3.748,2.932-5.19
		c1.303-1.441,2.932-2.558,4.886-3.348c1.955-0.79,4.246-1.186,6.873-1.186c2.563,0,4.784,0.347,6.664,1.041s3.434,1.714,4.662,3.06
		c1.228,1.346,2.141,3.002,2.739,4.967C752.379,489.076,752.679,491.33,752.679,493.871 M744.38,494.191
		c0-1.409-0.112-2.707-0.336-3.893c-0.226-1.186-0.604-2.216-1.138-3.092c-0.534-0.876-1.244-1.559-2.131-2.051
		c-0.887-0.491-2.002-0.736-3.348-0.736c-1.197,0-2.243,0.219-3.141,0.656c-0.896,0.438-1.635,1.079-2.21,1.923
		c-0.577,0.844-1.011,1.858-1.298,3.044c-0.289,1.186-0.433,2.536-0.433,4.053c0,1.41,0.117,2.707,0.353,3.893
		c0.234,1.186,0.613,2.217,1.137,3.092c0.522,0.877,1.234,1.555,2.131,2.035c0.897,0.48,2.008,0.721,3.332,0.721
		c1.218,0,2.275-0.219,3.172-0.657c0.897-0.438,1.635-1.073,2.211-1.906c0.577-0.833,1.004-1.842,1.282-3.027
		C744.241,497.06,744.38,495.709,744.38,494.191"/>
</g>
</svg>
